<svg width="51" height="43" viewBox="0 0 51 43" fill="none" xmlns="http://www.w3.org/2000/svg">
<g clip-path="url(#clip0_2446_518)">
<path d="M44.5651 6.80798C41.043 3.35761 36.4349 1.23316 31.5238 0.795645C26.6127 0.358132 21.7016 1.63454 17.6251 4.40798C17.5157 4.48151 17.4222 4.57615 17.3499 4.68634C17.2777 4.79652 17.2282 4.92003 17.2044 5.04961C17.1805 5.17919 17.1828 5.31223 17.2111 5.44092C17.2394 5.56961 17.2931 5.69134 17.369 5.79898C17.5247 6.0176 17.7599 6.16646 18.0241 6.21358C18.2883 6.26069 18.5604 6.20232 18.7821 6.05098C20.6867 4.75087 22.8104 3.80537 25.0511 3.25998C24.6256 3.78351 24.2418 4.33954 23.9031 4.92298C22.2636 7.96797 21.2039 11.291 20.7781 14.723C20.7592 14.8537 20.7664 14.9869 20.7993 15.1149C20.8321 15.2428 20.8901 15.363 20.9697 15.4684C21.0492 15.5739 21.1489 15.6625 21.263 15.7292C21.377 15.7959 21.5031 15.8393 21.634 15.857C21.8984 15.8967 22.1678 15.8304 22.3835 15.6725C22.5993 15.5147 22.7439 15.278 22.7861 15.014C22.9101 14.19 23.0581 13.386 23.2281 12.614H36.0471C36.5998 15.2103 36.9012 17.8539 36.9471 20.508H34.1011C33.8358 20.508 33.5815 20.6133 33.394 20.8009C33.2064 20.9884 33.1011 21.2428 33.1011 21.508C33.1011 21.7732 33.2064 22.0276 33.394 22.2151C33.5815 22.4026 33.8358 22.508 34.1011 22.508H36.9441C36.8982 25.1621 36.5968 27.8056 36.0441 30.402H31.0201C30.7548 30.402 30.5005 30.5073 30.3129 30.6949C30.1254 30.8824 30.0201 31.1368 30.0201 31.402C30.0201 31.6672 30.1254 31.9216 30.3129 32.1091C30.5005 32.2966 30.7548 32.402 31.0201 32.402H35.5391C35.2752 33.325 34.9576 34.2319 34.5881 35.118C33.3021 38.172 31.6541 40.018 30.0151 40.266C29.7631 40.2713 29.5114 40.2713 29.2601 40.266C26.3961 39.842 23.6801 34.595 22.7091 27.476C22.6685 27.2138 22.5269 26.9779 22.3145 26.8188C22.1022 26.6597 21.836 26.5901 21.573 26.6249C21.3099 26.6597 21.071 26.7961 20.9072 27.0049C20.7435 27.2136 20.6681 27.4782 20.6971 27.742C21.0917 31.2962 22.1443 34.7459 23.8011 37.915C24.1588 38.5504 24.5686 39.1551 25.0261 39.723C22.5795 39.1368 20.2743 38.069 18.2451 36.582C18.0291 36.423 17.7594 36.3548 17.4938 36.3922C17.2282 36.4296 16.9878 36.5695 16.8241 36.782C16.7442 36.8869 16.6861 37.0067 16.6533 37.1344C16.6204 37.2621 16.6134 37.3951 16.6327 37.5256C16.652 37.656 16.6972 37.7813 16.7656 37.894C16.834 38.0067 16.9242 38.1046 17.0311 38.182C20.6881 40.8547 25.1015 42.2929 29.6311 42.288C30.1124 42.288 30.5947 42.2716 31.078 42.239C36.1496 41.903 40.9329 39.7605 44.5601 36.2C46.5178 34.2856 48.0733 31.9994 49.1353 29.4755C50.1973 26.9517 50.7443 24.2411 50.7443 21.503C50.7443 18.7648 50.1973 16.0543 49.1353 13.5304C48.0733 11.0066 46.5178 8.72037 44.5601 6.80598L44.5651 6.80798ZM48.6921 20.508H38.9741C38.9288 17.8562 38.6427 15.214 38.119 12.614H46.4551C47.7842 15.0428 48.5488 17.74 48.6921 20.505V20.508ZM23.7331 10.615C24.1813 8.97827 24.8281 7.40256 25.6591 5.92298C26.8711 3.85798 28.282 2.72298 29.634 2.72298C31.397 2.72298 33.2031 4.60998 34.5891 7.90098C34.9586 8.78704 35.2762 9.69392 35.5401 10.617L23.7331 10.615ZM36.4651 7.13398C35.9057 5.74324 35.1497 4.43995 34.2201 3.26398C38.6321 4.33604 42.5195 6.94146 45.188 10.615H37.6451C37.3309 9.42876 36.937 8.2651 36.466 7.13198L36.4651 7.13398ZM43.1291 34.791C40.6698 37.2033 37.6022 38.9033 34.2531 39.71C35.1669 38.5437 35.9115 37.2543 36.4651 35.88C36.9363 34.7475 37.3305 33.5845 37.6451 32.399H45.188C44.5692 33.2508 43.8808 34.0498 43.1301 34.788L43.1291 34.791ZM38.119 30.401C38.6427 27.801 38.9289 25.1588 38.9741 22.507H48.6931C48.5503 25.273 47.7857 27.9713 46.4561 30.401H38.119Z" fill="#353535"/>
<path d="M28.4923 20.9681C27.79 20.0764 26.8946 19.3554 25.8736 18.8594C24.8526 18.3633 23.7325 18.1051 22.5973 18.1041H19.3693L16.1103 10.3881C16.0415 10.2277 15.9269 10.091 15.7809 9.99515C15.6349 9.8993 15.464 9.84853 15.2893 9.84914H11.9303C11.6965 9.84754 11.4715 9.93877 11.3049 10.1028C11.1382 10.2669 11.0434 10.4903 11.0413 10.7241V18.1041H7.79532L5.52332 15.4241C5.43884 15.3257 5.33407 15.2466 5.21618 15.1924C5.09829 15.1382 4.97007 15.1102 4.84032 15.1102H1.63932C1.48441 15.1096 1.33202 15.1495 1.19718 15.2258C1.06234 15.302 0.949692 15.4121 0.870323 15.5451C0.79281 15.6776 0.751953 15.8282 0.751953 15.9816C0.751953 16.1351 0.79281 16.2857 0.870323 16.4181L3.81032 21.5002L0.870323 26.5822C0.79281 26.7146 0.751953 26.8652 0.751953 27.0186C0.751953 27.1721 0.79281 27.3227 0.870323 27.4551C0.949568 27.5884 1.06216 27.6986 1.19701 27.7751C1.33186 27.8516 1.48431 27.8916 1.63932 27.8911H4.83932C4.96907 27.8911 5.09729 27.8631 5.21518 27.8089C5.33307 27.7547 5.43784 27.6756 5.52232 27.5771L7.79432 24.8971H11.0403V32.2861C11.0424 32.52 11.1372 32.7434 11.3039 32.9075C11.4706 33.0715 11.6955 33.1627 11.9293 33.1611H15.2873C15.4621 33.1617 15.6331 33.1108 15.7791 33.0147C15.9251 32.9187 16.0396 32.7818 16.1083 32.6211L19.3673 24.8961H22.5953C23.7305 24.8952 24.8506 24.637 25.8716 24.1409C26.8926 23.6449 27.788 22.9239 28.4903 22.0321C28.6093 21.8804 28.6742 21.6933 28.6745 21.5005C28.6749 21.3077 28.6108 21.1203 28.4923 20.9681ZM12.8203 11.5991H14.6963L17.4433 18.0991H12.8203V11.5991ZM14.6953 31.4101H12.8203V24.8911H17.4503L14.6953 31.4101ZM22.5953 23.1461H7.51732C7.46036 23.1381 7.40278 23.1355 7.34532 23.1382C7.22279 23.1439 7.10272 23.1746 6.99249 23.2284C6.88226 23.2822 6.7842 23.358 6.70432 23.4511L4.42532 26.1431H3.16932L5.60332 21.9361C5.67963 21.8046 5.71981 21.6552 5.71981 21.5031C5.71981 21.3511 5.67963 21.2017 5.60332 21.0701L3.16932 16.8631H4.42532L6.70532 19.5521C6.7851 19.6459 6.88339 19.7223 6.99404 19.7763C7.10468 19.8303 7.2253 19.8609 7.34832 19.8661C7.40548 19.8685 7.46273 19.8655 7.51932 19.8571H22.5993C24.0999 19.8598 25.5396 20.4507 26.6093 21.5031C25.5384 22.5536 24.0984 23.1424 22.5983 23.1431L22.5953 23.1461Z" fill="#353535"/>
</g>
<defs>
<clipPath id="clip0_2446_518">
<rect width="50" height="41.58" fill="white" transform="translate(0.75 0.709961)"/>
</clipPath>
</defs>
</svg>
