<svg width="90" height="89" viewBox="0 0 90 89" fill="none" xmlns="http://www.w3.org/2000/svg">
<rect x="0.25" width="89" height="89" rx="44.5" fill="#FAFAFA"/>
<g clip-path="url(#clip0_2446_516)">
<path d="M63.5651 29.808C60.043 26.3576 55.4349 24.2332 50.5238 23.7956C45.6127 23.3581 40.7016 24.6345 36.6251 27.408C36.5157 27.4815 36.4222 27.5762 36.3499 27.6863C36.2777 27.7965 36.2282 27.92 36.2044 28.0496C36.1805 28.1792 36.1828 28.3122 36.2111 28.4409C36.2394 28.5696 36.2931 28.6913 36.369 28.799C36.5247 29.0176 36.7599 29.1665 37.0241 29.2136C37.2883 29.2607 37.5604 29.2023 37.7821 29.051C39.6867 27.7509 41.8104 26.8054 44.0511 26.26C43.6256 26.7835 43.2418 27.3395 42.9031 27.923C41.2636 30.968 40.2039 34.291 39.7781 37.723C39.7592 37.8537 39.7664 37.9869 39.7993 38.1149C39.8321 38.2428 39.8901 38.363 39.9697 38.4684C40.0492 38.5739 40.1489 38.6625 40.263 38.7292C40.377 38.7959 40.5031 38.8393 40.634 38.857C40.8984 38.8967 41.1678 38.8304 41.3835 38.6725C41.5993 38.5147 41.7439 38.278 41.7861 38.014C41.9101 37.19 42.0581 36.386 42.2281 35.614H55.0471C55.5998 38.2103 55.9012 40.8539 55.9471 43.508H53.1011C52.8358 43.508 52.5815 43.6133 52.394 43.8009C52.2064 43.9884 52.1011 44.2428 52.1011 44.508C52.1011 44.7732 52.2064 45.0276 52.394 45.2151C52.5815 45.4026 52.8358 45.508 53.1011 45.508H55.9441C55.8982 48.1621 55.5968 50.8056 55.0441 53.402H50.0201C49.7548 53.402 49.5005 53.5073 49.3129 53.6949C49.1254 53.8824 49.0201 54.1368 49.0201 54.402C49.0201 54.6672 49.1254 54.9216 49.3129 55.1091C49.5005 55.2966 49.7548 55.402 50.0201 55.402H54.5391C54.2752 56.325 53.9576 57.2319 53.5881 58.118C52.3021 61.172 50.6541 63.018 49.0151 63.266C48.7631 63.2713 48.5114 63.2713 48.2601 63.266C45.3961 62.842 42.6801 57.595 41.7091 50.476C41.6685 50.2138 41.5269 49.9779 41.3145 49.8188C41.1022 49.6597 40.836 49.5901 40.573 49.6249C40.3099 49.6597 40.071 49.7961 39.9072 50.0049C39.7435 50.2136 39.6681 50.4782 39.6971 50.742C40.0917 54.2962 41.1443 57.7459 42.8011 60.915C43.1588 61.5504 43.5686 62.1551 44.0261 62.723C41.5795 62.1368 39.2743 61.069 37.2451 59.582C37.0291 59.423 36.7594 59.3548 36.4938 59.3922C36.2282 59.4296 35.9878 59.5695 35.8241 59.782C35.7442 59.8869 35.6861 60.0067 35.6533 60.1344C35.6204 60.2621 35.6134 60.3951 35.6327 60.5256C35.652 60.656 35.6972 60.7813 35.7656 60.894C35.834 61.0067 35.9242 61.1046 36.0311 61.182C39.6881 63.8547 44.1015 65.2929 48.6311 65.288C49.1124 65.288 49.5947 65.2716 50.078 65.239C55.1496 64.903 59.9329 62.7605 63.5601 59.2C65.5178 57.2856 67.0733 54.9994 68.1353 52.4755C69.1973 49.9517 69.7443 47.2411 69.7443 44.503C69.7443 41.7648 69.1973 39.0543 68.1353 36.5304C67.0733 34.0066 65.5178 31.7204 63.5601 29.806L63.5651 29.808ZM67.6921 43.508H57.9741C57.9288 40.8562 57.6427 38.214 57.119 35.614H65.4551C66.7842 38.0428 67.5488 40.74 67.6921 43.505V43.508ZM42.7331 33.615C43.1813 31.9783 43.8281 30.4026 44.6591 28.923C45.8711 26.858 47.282 25.723 48.634 25.723C50.397 25.723 52.2031 27.61 53.5891 30.901C53.9586 31.787 54.2762 32.6939 54.5401 33.617L42.7331 33.615ZM55.4651 30.134C54.9057 28.7432 54.1497 27.44 53.2201 26.264C57.6321 27.336 61.5195 29.9415 64.188 33.615H56.6451C56.3309 32.4288 55.937 31.2651 55.466 30.132L55.4651 30.134ZM62.1291 57.791C59.6698 60.2033 56.6022 61.9033 53.2531 62.71C54.1669 61.5437 54.9115 60.2543 55.4651 58.88C55.9363 57.7475 56.3305 56.5845 56.6451 55.399H64.188C63.5692 56.2508 62.8808 57.0498 62.1301 57.788L62.1291 57.791ZM57.119 53.401C57.6427 50.801 57.9289 48.1588 57.9741 45.507H67.6931C67.5503 48.273 66.7857 50.9713 65.4561 53.401H57.119Z" fill="#353535"/>
<path d="M47.4923 43.9681C46.79 43.0764 45.8946 42.3554 44.8736 41.8594C43.8526 41.3633 42.7325 41.1051 41.5973 41.1041H38.3693L35.1103 33.3881C35.0415 33.2277 34.9269 33.091 34.7809 32.9951C34.6349 32.8993 34.464 32.8485 34.2893 32.8491H30.9303C30.6965 32.8475 30.4715 32.9388 30.3049 33.1028C30.1382 33.2669 30.0434 33.4903 30.0413 33.7241V41.1041H26.7953L24.5233 38.4241C24.4388 38.3257 24.3341 38.2466 24.2162 38.1924C24.0983 38.1382 23.9701 38.1102 23.8403 38.1102H20.6393C20.4844 38.1096 20.332 38.1495 20.1972 38.2258C20.0623 38.302 19.9497 38.4121 19.8703 38.5451C19.7928 38.6776 19.752 38.8282 19.752 38.9816C19.752 39.1351 19.7928 39.2857 19.8703 39.4181L22.8103 44.5002L19.8703 49.5822C19.7928 49.7146 19.752 49.8652 19.752 50.0186C19.752 50.1721 19.7928 50.3227 19.8703 50.4551C19.9496 50.5884 20.0622 50.6986 20.197 50.7751C20.3319 50.8516 20.4843 50.8916 20.6393 50.8911H23.8393C23.9691 50.8911 24.0973 50.8631 24.2152 50.8089C24.3331 50.7547 24.4378 50.6756 24.5223 50.5771L26.7943 47.8971H30.0403V55.2861C30.0424 55.52 30.1372 55.7434 30.3039 55.9075C30.4706 56.0715 30.6955 56.1627 30.9293 56.1611H34.2873C34.4621 56.1617 34.6331 56.1108 34.7791 56.0147C34.9251 55.9187 35.0396 55.7818 35.1083 55.6211L38.3673 47.8961H41.5953C42.7305 47.8952 43.8506 47.637 44.8716 47.1409C45.8926 46.6449 46.788 45.9239 47.4903 45.0321C47.6093 44.8804 47.6742 44.6933 47.6745 44.5005C47.6749 44.3077 47.6108 44.1203 47.4923 43.9681ZM31.8203 34.5991H33.6963L36.4433 41.0991H31.8203V34.5991ZM33.6953 54.4101H31.8203V47.8911H36.4503L33.6953 54.4101ZM41.5953 46.1461H26.5173C26.4604 46.1381 26.4028 46.1355 26.3453 46.1382C26.2228 46.1439 26.1027 46.1746 25.9925 46.2284C25.8823 46.2822 25.7842 46.358 25.7043 46.4511L23.4253 49.1431H22.1693L24.6033 44.9361C24.6796 44.8046 24.7198 44.6552 24.7198 44.5031C24.7198 44.3511 24.6796 44.2017 24.6033 44.0701L22.1693 39.8631H23.4253L25.7053 42.5521C25.7851 42.6459 25.8834 42.7223 25.994 42.7763C26.1047 42.8303 26.2253 42.8609 26.3483 42.8661C26.4055 42.8685 26.4627 42.8655 26.5193 42.8571H41.5993C43.0999 42.8598 44.5396 43.4507 45.6093 44.5031C44.5384 45.5536 43.0984 46.1424 41.5983 46.1431L41.5953 46.1461Z" fill="#353535"/>
</g>
<rect x="0.25" width="23" height="23" rx="11.5" fill="#34B78F"/>
<path d="M11.8974 17.1591C11.1474 17.1591 10.4789 17.0303 9.89174 16.7727C9.3084 16.5152 8.84439 16.1572 8.49969 15.6989C8.15878 15.2367 7.97318 14.7008 7.94287 14.0909H9.37469C9.40499 14.4659 9.53378 14.7898 9.76105 15.0625C9.98833 15.3314 10.2857 15.5398 10.6531 15.6875C11.0205 15.8352 11.4277 15.9091 11.8747 15.9091C12.3747 15.9091 12.8179 15.822 13.2042 15.6477C13.5906 15.4735 13.8936 15.2311 14.1133 14.9205C14.333 14.6098 14.4429 14.25 14.4429 13.8409C14.4429 13.4129 14.3368 13.036 14.1247 12.7102C13.9126 12.3807 13.602 12.1231 13.1929 11.9375C12.7838 11.7519 12.2838 11.6591 11.6929 11.6591H10.7611V10.4091H11.6929C12.155 10.4091 12.5603 10.3258 12.9088 10.1591C13.2611 9.99242 13.5357 9.75758 13.7326 9.45455C13.9334 9.15152 14.0338 8.79545 14.0338 8.38636C14.0338 7.99242 13.9467 7.64962 13.7724 7.35795C13.5982 7.06629 13.352 6.83901 13.0338 6.67614C12.7194 6.51326 12.3482 6.43182 11.9201 6.43182C11.5186 6.43182 11.1398 6.50568 10.7838 6.65341C10.4315 6.79735 10.1436 7.00758 9.92015 7.28409C9.69666 7.55682 9.57545 7.88636 9.55651 8.27273H8.19287C8.2156 7.66288 8.39931 7.12879 8.74401 6.67045C9.08871 6.20833 9.53946 5.84848 10.0963 5.59091C10.6569 5.33333 11.2724 5.20455 11.9429 5.20455C12.6626 5.20455 13.28 5.35038 13.7951 5.64205C14.3103 5.92992 14.7061 6.31061 14.9826 6.78409C15.2592 7.25758 15.3974 7.76894 15.3974 8.31818C15.3974 8.97348 15.2251 9.5322 14.8804 9.99432C14.5395 10.4564 14.0754 10.7765 13.4883 10.9545V11.0455C14.2232 11.1667 14.797 11.4792 15.2099 11.983C15.6228 12.483 15.8292 13.1023 15.8292 13.8409C15.8292 14.4735 15.6569 15.0417 15.3122 15.5455C14.9713 16.0455 14.5054 16.4394 13.9145 16.7273C13.3236 17.0152 12.6512 17.1591 11.8974 17.1591Z" fill="white"/>
<defs>
<clipPath id="clip0_2446_516">
<rect width="50" height="41.58" fill="white" transform="translate(19.75 23.71)"/>
</clipPath>
</defs>
</svg>
