<svg width="90" height="89" viewBox="0 0 90 89" fill="none" xmlns="http://www.w3.org/2000/svg">
<rect x="0.75" width="89" height="89" rx="44.5" fill="#FAFAFA"/>
<g clip-path="url(#clip0_2446_488)">
<path d="M61.3962 40.409C61.6642 40.4053 61.9199 40.2956 62.1073 40.1039C62.2947 39.9122 62.3986 39.6541 62.3962 39.386V27.114C62.4074 25.7709 61.8853 24.4781 60.9446 23.5194C60.0039 22.5607 58.7213 22.0143 57.3782 22H25.2682C23.9251 22.0143 22.6425 22.5607 21.7017 23.5194C20.761 24.4781 20.239 25.7709 20.2502 27.114V61.886C20.239 63.2291 20.761 64.5219 21.7017 65.4806C22.6425 66.4393 23.9251 66.9857 25.2682 67H57.3812C58.7243 66.9857 60.0069 66.4393 60.9476 65.4806C61.8883 64.5219 62.4104 63.2291 62.3992 61.886V55.75C62.3992 55.4839 62.2935 55.2286 62.1053 55.0404C61.9171 54.8522 61.6618 54.7465 61.3957 54.7465C61.1295 54.7465 60.8743 54.8522 60.6861 55.0404C60.4979 55.2286 60.3922 55.4839 60.3922 55.75V61.886C60.3988 62.6919 60.0856 63.4675 59.5211 64.0426C58.9566 64.6178 58.187 64.9456 57.3812 64.954H25.2682C24.4623 64.9456 23.6927 64.6178 23.1283 64.0426C22.5638 63.4675 22.2505 62.6919 22.2572 61.886V32.227H60.3922V39.386C60.3898 39.6548 60.4942 39.9135 60.6824 40.1053C60.8707 40.2971 61.1274 40.4064 61.3962 40.409ZM22.2572 30.182V27.114C22.2505 26.3081 22.5638 25.5325 23.1283 24.9574C23.6927 24.3822 24.4623 24.0544 25.2682 24.046H57.3812C58.1869 24.0547 58.9564 24.3826 59.5208 24.9577C60.0852 25.5328 60.3986 26.3082 60.3922 27.114V30.182H22.2572Z" fill="#353535"/>
<path d="M25.9594 28.8509C26.5901 28.8509 27.1014 28.3396 27.1014 27.7089C27.1014 27.0782 26.5901 26.5669 25.9594 26.5669C25.3287 26.5669 24.8174 27.0782 24.8174 27.7089C24.8174 28.3396 25.3287 28.8509 25.9594 28.8509Z" fill="#353535"/>
<path d="M29.517 28.8509C30.1477 28.8509 30.659 28.3396 30.659 27.7089C30.659 27.0782 30.1477 26.5669 29.517 26.5669C28.8863 26.5669 28.375 27.0782 28.375 27.7089C28.375 28.3396 28.8863 28.8509 29.517 28.8509Z" fill="#353535"/>
<path d="M33.5785 28.8509C34.2092 28.8509 34.7205 28.3396 34.7205 27.7089C34.7205 27.0782 34.2092 26.5669 33.5785 26.5669C32.9478 26.5669 32.4365 27.0782 32.4365 27.7089C32.4365 28.3396 32.9478 28.8509 33.5785 28.8509Z" fill="#353535"/>
<path d="M69.3851 41.7882C69.2396 41.7502 69.088 41.7416 68.9392 41.7629C68.7903 41.7843 68.6472 41.8351 68.5183 41.9125C68.3894 41.99 68.2772 42.0923 68.1884 42.2137C68.0996 42.335 68.0359 42.4729 68.0011 42.6192L65.7181 51.7532C65.6815 51.8986 65.6739 52.0499 65.6959 52.1983C65.7178 52.3467 65.7689 52.4892 65.8461 52.6178C65.9233 52.7464 66.0251 52.8585 66.1458 52.9476C66.2664 53.0368 66.4035 53.1012 66.5491 53.1372C66.6394 53.1596 66.7321 53.171 66.8251 53.1712C67.08 53.1719 67.3277 53.0871 67.5286 52.9302C67.7295 52.7734 67.872 52.5536 67.9331 52.3062L70.2161 43.1722C70.2528 43.0268 70.2603 42.8755 70.2384 42.7271C70.2164 42.5787 70.1654 42.4362 70.0881 42.3076C70.0109 42.179 69.9091 42.0669 69.7884 41.9778C69.6678 41.8886 69.5307 41.8242 69.3851 41.7882Z" fill="#353535"/>
<path d="M64.8177 41.7879C64.6723 41.7497 64.5206 41.741 64.3717 41.7623C64.2228 41.7836 64.0797 41.8345 63.9507 41.9119C63.8218 41.9893 63.7096 42.0918 63.6208 42.2132C63.532 42.3346 63.4684 42.4726 63.4337 42.6189L61.1508 51.7529C61.1141 51.8984 61.1065 52.0496 61.1285 52.198C61.1504 52.3464 61.2015 52.489 61.2787 52.6176C61.3559 52.7462 61.4578 52.8582 61.5784 52.9474C61.6991 53.0365 61.8361 53.1009 61.9817 53.1369C62.0721 53.1593 62.1647 53.1707 62.2578 53.1709C62.5126 53.1717 62.7604 53.0868 62.9613 52.93C63.1622 52.7731 63.3046 52.5534 63.3658 52.3059L65.6487 43.1719C65.6854 43.0265 65.693 42.8752 65.671 42.7269C65.649 42.5785 65.598 42.4359 65.5208 42.3073C65.4436 42.1787 65.3417 42.0666 65.2211 41.9775C65.1004 41.8884 64.9634 41.824 64.8177 41.7879Z" fill="#353535"/>
<path d="M59.9848 46.659C60.6155 46.659 61.1268 46.1477 61.1268 45.517C61.1268 44.8863 60.6155 44.375 59.9848 44.375C59.3541 44.375 58.8428 44.8863 58.8428 45.517C58.8428 46.1477 59.3541 46.659 59.9848 46.659Z" fill="#353535"/>
<path d="M59.9848 50.7278C60.6155 50.7278 61.1268 50.2166 61.1268 49.5858C61.1268 48.9551 60.6155 48.4438 59.9848 48.4438C59.3541 48.4438 58.8428 48.9551 58.8428 49.5858C58.8428 50.2166 59.3541 50.7278 59.9848 50.7278Z" fill="#353535"/>
<path d="M25.428 45.2621C25.3765 45.1625 25.3058 45.0741 25.2201 45.0019C25.1344 44.9296 25.0353 44.875 24.9284 44.841C24.8216 44.8071 24.7091 44.7945 24.5975 44.804C24.4858 44.8136 24.377 44.845 24.2775 44.8966C24.178 44.9481 24.0895 45.0188 24.0173 45.1045C23.9451 45.1902 23.8904 45.2893 23.8565 45.3961C23.8225 45.503 23.81 45.6154 23.8195 45.7271C23.829 45.8388 23.8605 45.9475 23.912 46.0471L26.212 50.484C26.2848 50.625 26.3956 50.7428 26.5317 50.8243C26.6678 50.9058 26.824 50.9477 26.9826 50.9453C27.1413 50.9429 27.2961 50.8963 27.4297 50.8108C27.5633 50.7252 27.6704 50.6041 27.739 50.4611L29.13 47.5611L30.64 50.4791C30.712 50.618 30.8208 50.7344 30.9544 50.8157C31.0881 50.897 31.2415 50.94 31.398 50.9401H31.411C31.5697 50.9377 31.7246 50.8912 31.8583 50.8057C31.992 50.7202 32.0993 50.5991 32.168 50.4561L34.299 46.019C34.3475 45.9181 34.3757 45.8085 34.3819 45.6967C34.388 45.5848 34.3721 45.4728 34.335 45.3671C34.2979 45.2613 34.2404 45.164 34.1657 45.0805C34.0909 44.997 34.0005 44.9291 33.8995 44.8806C33.7985 44.832 33.689 44.8039 33.5771 44.7977C33.4652 44.7915 33.3532 44.8074 33.2475 44.8445C33.1418 44.8816 33.0444 44.9392 32.9609 45.0139C32.8775 45.0886 32.8095 45.1791 32.761 45.2801L31.37 48.1801L29.856 45.2621C29.7832 45.1211 29.6724 45.0033 29.5363 44.9218C29.4002 44.8403 29.244 44.7984 29.0854 44.8008C28.9267 44.8032 28.7719 44.8498 28.6383 44.9353C28.5047 45.0209 28.3976 45.142 28.329 45.2851L26.939 48.1851L25.428 45.2621Z" fill="#353535"/>
<path d="M37.0647 45.2601C36.9606 45.0591 36.7809 44.9076 36.5652 44.8391C36.3494 44.7705 36.1153 44.7905 35.9142 44.8946C35.7132 44.9987 35.5617 45.1784 35.4932 45.3941C35.4246 45.6099 35.4446 45.8441 35.5487 46.0451L37.8487 50.4821C37.9216 50.623 38.0323 50.7409 38.1684 50.8224C38.3045 50.9038 38.4607 50.9457 38.6193 50.9434C38.778 50.941 38.9328 50.8944 39.0664 50.8088C39.2 50.7233 39.3071 50.6022 39.3757 50.4591L40.7667 47.5591L42.2767 50.4771C42.3487 50.616 42.4575 50.7325 42.5912 50.8137C42.7248 50.895 42.8783 50.938 43.0347 50.9381H43.0477C43.2064 50.9357 43.3613 50.8892 43.495 50.8037C43.6287 50.7182 43.736 50.5971 43.8047 50.4541L45.9357 46.0171C46.0337 45.8131 46.0467 45.5786 45.9718 45.3651C45.8968 45.1516 45.7402 44.9766 45.5362 44.8786C45.3323 44.7806 45.0977 44.7676 44.8842 44.8426C44.6707 44.9175 44.4957 45.0742 44.3977 45.2781L43.0067 48.1781L41.4957 45.2601C41.4229 45.1192 41.3122 45.0013 41.176 44.9198C41.0399 44.8383 40.8837 44.7965 40.7251 44.7988C40.5665 44.8012 40.4116 44.8478 40.278 44.9334C40.1444 45.0189 40.0373 45.14 39.9687 45.2831L38.5787 48.1831L37.0647 45.2601Z" fill="#353535"/>
<path d="M48.4192 44.9611C48.3151 44.7601 48.1354 44.6086 47.9196 44.5401C47.7039 44.4715 47.4697 44.4915 47.2687 44.5956C47.0677 44.6997 46.9162 44.8794 46.8477 45.0951C46.7791 45.3109 46.7991 45.5451 46.9032 45.7461L49.2032 50.1831C49.276 50.324 49.3868 50.4419 49.5229 50.5233C49.659 50.6048 49.8152 50.6467 49.9738 50.6443C50.1325 50.642 50.2873 50.5954 50.4209 50.5098C50.5545 50.4243 50.6616 50.3032 50.7302 50.1601L52.1212 47.2601L53.6312 50.1781C53.7032 50.317 53.812 50.4334 53.9457 50.5147C54.0793 50.596 54.2327 50.6391 54.3892 50.6391H54.4022C54.5609 50.6367 54.7158 50.5902 54.8495 50.5047C54.9832 50.4192 55.0905 50.2981 55.1592 50.1551L57.2872 45.7231C57.3357 45.6221 57.3639 45.5125 57.3701 45.4007C57.3762 45.2888 57.3603 45.1768 57.3232 45.0711C57.2861 44.9654 57.2286 44.868 57.1539 44.7845C57.0791 44.7011 56.9887 44.6331 56.8877 44.5846C56.7867 44.5361 56.6771 44.5079 56.5653 44.5017C56.4534 44.4955 56.3414 44.5115 56.2357 44.5486C56.13 44.5856 56.0326 44.6432 55.9491 44.7179C55.8657 44.7927 55.7977 44.8831 55.7492 44.9841L54.3582 47.8841L52.8472 44.9661C52.7744 44.8251 52.6637 44.7073 52.5275 44.6258C52.3914 44.5443 52.2352 44.5024 52.0766 44.5048C51.9179 44.5072 51.7631 44.5538 51.6295 44.6394C51.4959 44.7249 51.3888 44.846 51.3202 44.9891L49.9302 47.8891L48.4192 44.9611Z" fill="#353535"/>
</g>
<rect x="0.75" width="23" height="23" rx="11.5" fill="#34B78F"/>
<path d="M13.9315 5.36364V17H12.5224V6.84091H12.4542L9.61333 8.72727V7.29545L12.5224 5.36364H13.9315Z" fill="white"/>
<defs>
<clipPath id="clip0_2446_488">
<rect width="50" height="45" fill="white" transform="translate(20.25 22)"/>
</clipPath>
</defs>
</svg>
