<svg width="51" height="45" viewBox="0 0 51 45" fill="none" xmlns="http://www.w3.org/2000/svg">
<g clip-path="url(#clip0_2446_490)">
<path d="M41.3962 18.409C41.6642 18.4053 41.9199 18.2956 42.1073 18.1039C42.2947 17.9122 42.3986 17.6541 42.3962 17.386V5.114C42.4074 3.77087 41.8853 2.47814 40.9446 1.51941C40.0039 0.560682 38.7213 0.0142537 37.3782 0H5.26818C3.92507 0.0142537 2.64247 0.560682 1.70174 1.51941C0.761006 2.47814 0.238978 3.77087 0.250177 5.114V39.886C0.238978 41.2291 0.761006 42.5219 1.70174 43.4806C2.64247 44.4393 3.92507 44.9857 5.26818 45H37.3812C38.7243 44.9857 40.0069 44.4393 40.9476 43.4806C41.8883 42.5219 42.4104 41.2291 42.3992 39.886V33.75C42.3992 33.4839 42.2935 33.2286 42.1053 33.0404C41.9171 32.8522 41.6618 32.7465 41.3957 32.7465C41.1295 32.7465 40.8743 32.8522 40.6861 33.0404C40.4979 33.2286 40.3922 33.4839 40.3922 33.75V39.886C40.3988 40.6919 40.0856 41.4675 39.5211 42.0426C38.9566 42.6178 38.187 42.9456 37.3812 42.954H5.26818C4.46233 42.9456 3.69275 42.6178 3.12827 42.0426C2.56379 41.4675 2.25051 40.6919 2.25718 39.886V10.227H40.3922V17.386C40.3898 17.6548 40.4942 17.9135 40.6824 18.1053C40.8707 18.2971 41.1274 18.4064 41.3962 18.409ZM2.25718 8.182V5.114C2.25051 4.30814 2.56379 3.53254 3.12827 2.95738C3.69275 2.38221 4.46233 2.05445 5.26818 2.046H37.3812C38.1869 2.05471 38.9564 2.38256 39.5208 2.95767C40.0852 3.53278 40.3986 4.30822 40.3922 5.114V8.182H2.25718Z" fill="#353535"/>
<path d="M5.95938 6.85089C6.59009 6.85089 7.10138 6.3396 7.10138 5.70889C7.10138 5.07819 6.59009 4.56689 5.95938 4.56689C5.32867 4.56689 4.81738 5.07819 4.81738 5.70889C4.81738 6.3396 5.32867 6.85089 5.95938 6.85089Z" fill="#353535"/>
<path d="M9.517 6.85089C10.1477 6.85089 10.659 6.3396 10.659 5.70889C10.659 5.07819 10.1477 4.56689 9.517 4.56689C8.88629 4.56689 8.375 5.07819 8.375 5.70889C8.375 6.3396 8.88629 6.85089 9.517 6.85089Z" fill="#353535"/>
<path d="M13.5785 6.85089C14.2092 6.85089 14.7205 6.3396 14.7205 5.70889C14.7205 5.07819 14.2092 4.56689 13.5785 4.56689C12.9478 4.56689 12.4365 5.07819 12.4365 5.70889C12.4365 6.3396 12.9478 6.85089 13.5785 6.85089Z" fill="#353535"/>
<path d="M49.3851 19.7882C49.2396 19.7502 49.088 19.7416 48.9392 19.7629C48.7903 19.7843 48.6472 19.8351 48.5183 19.9125C48.3894 19.99 48.2772 20.0923 48.1884 20.2137C48.0996 20.335 48.0359 20.4729 48.0011 20.6192L45.7181 29.7532C45.6815 29.8986 45.6739 30.0499 45.6959 30.1983C45.7178 30.3467 45.7689 30.4892 45.8461 30.6178C45.9233 30.7464 46.0251 30.8585 46.1458 30.9476C46.2664 31.0368 46.4035 31.1012 46.5491 31.1372C46.6394 31.1596 46.7321 31.171 46.8251 31.1712C47.08 31.1719 47.3277 31.0871 47.5286 30.9302C47.7295 30.7734 47.872 30.5536 47.9331 30.3062L50.2161 21.1722C50.2528 21.0268 50.2603 20.8755 50.2384 20.7271C50.2164 20.5787 50.1654 20.4362 50.0881 20.3076C50.0109 20.179 49.9091 20.0669 49.7884 19.9778C49.6678 19.8886 49.5307 19.8242 49.3851 19.7882Z" fill="#353535"/>
<path d="M44.8177 19.7879C44.6723 19.7497 44.5206 19.741 44.3717 19.7623C44.2228 19.7836 44.0797 19.8345 43.9507 19.9119C43.8218 19.9893 43.7096 20.0918 43.6208 20.2132C43.532 20.3346 43.4684 20.4726 43.4337 20.6189L41.1508 29.7529C41.1141 29.8984 41.1065 30.0496 41.1285 30.198C41.1504 30.3464 41.2015 30.489 41.2787 30.6176C41.3559 30.7462 41.4578 30.8582 41.5784 30.9474C41.6991 31.0365 41.8361 31.1009 41.9817 31.1369C42.0721 31.1593 42.1647 31.1707 42.2578 31.1709C42.5126 31.1717 42.7604 31.0868 42.9613 30.93C43.1622 30.7731 43.3046 30.5534 43.3658 30.3059L45.6487 21.1719C45.6854 21.0265 45.693 20.8752 45.671 20.7269C45.649 20.5785 45.598 20.4359 45.5208 20.3073C45.4436 20.1787 45.3417 20.0666 45.2211 19.9775C45.1004 19.8884 44.9634 19.824 44.8177 19.7879Z" fill="#353535"/>
<path d="M39.9848 24.659C40.6155 24.659 41.1268 24.1477 41.1268 23.517C41.1268 22.8863 40.6155 22.375 39.9848 22.375C39.3541 22.375 38.8428 22.8863 38.8428 23.517C38.8428 24.1477 39.3541 24.659 39.9848 24.659Z" fill="#353535"/>
<path d="M39.9848 28.7278C40.6155 28.7278 41.1268 28.2166 41.1268 27.5858C41.1268 26.9551 40.6155 26.4438 39.9848 26.4438C39.3541 26.4438 38.8428 26.9551 38.8428 27.5858C38.8428 28.2166 39.3541 28.7278 39.9848 28.7278Z" fill="#353535"/>
<path d="M5.428 23.2621C5.37646 23.1625 5.30581 23.0741 5.2201 23.0019C5.13438 22.9296 5.03528 22.875 4.92845 22.841C4.82161 22.8071 4.70914 22.7945 4.59745 22.804C4.48576 22.8136 4.37704 22.845 4.2775 22.8966C4.17796 22.9481 4.08954 23.0188 4.0173 23.1045C3.94506 23.1902 3.89041 23.2893 3.85647 23.3961C3.82253 23.503 3.80997 23.6154 3.81949 23.7271C3.82902 23.8388 3.86046 23.9475 3.912 24.0471L6.212 28.484C6.28485 28.625 6.39555 28.7428 6.53169 28.8243C6.66782 28.9058 6.82398 28.9477 6.98262 28.9453C7.14126 28.9429 7.29609 28.8963 7.42971 28.8108C7.56332 28.7252 7.67043 28.6041 7.739 28.4611L9.13 25.5611L10.64 28.4791C10.712 28.618 10.8208 28.7344 10.9544 28.8157C11.0881 28.897 11.2415 28.94 11.398 28.9401H11.411C11.5697 28.9377 11.7246 28.8912 11.8583 28.8057C11.992 28.7202 12.0993 28.5991 12.168 28.4561L14.299 24.019C14.3475 23.9181 14.3757 23.8085 14.3819 23.6967C14.388 23.5848 14.3721 23.4728 14.335 23.3671C14.2979 23.2613 14.2404 23.164 14.1657 23.0805C14.0909 22.997 14.0005 22.9291 13.8995 22.8806C13.7985 22.832 13.689 22.8039 13.5771 22.7977C13.4652 22.7915 13.3532 22.8074 13.2475 22.8445C13.1418 22.8816 13.0444 22.9392 12.9609 23.0139C12.8775 23.0886 12.8095 23.1791 12.761 23.2801L11.37 26.1801L9.856 23.2621C9.78316 23.1211 9.67244 23.0033 9.53631 22.9218C9.40018 22.8403 9.24402 22.7984 9.08538 22.8008C8.92674 22.8032 8.77191 22.8498 8.6383 22.9353C8.50468 23.0209 8.39757 23.142 8.329 23.2851L6.939 26.1851L5.428 23.2621Z" fill="#353535"/>
<path d="M17.0647 23.2601C16.9606 23.0591 16.7809 22.9076 16.5652 22.8391C16.3494 22.7705 16.1153 22.7905 15.9142 22.8946C15.7132 22.9987 15.5617 23.1784 15.4932 23.3941C15.4246 23.6099 15.4446 23.8441 15.5487 24.0451L17.8487 28.4821C17.9216 28.623 18.0323 28.7409 18.1684 28.8224C18.3045 28.9038 18.4607 28.9457 18.6193 28.9434C18.778 28.941 18.9328 28.8944 19.0664 28.8088C19.2 28.7233 19.3071 28.6022 19.3757 28.4591L20.7667 25.5591L22.2767 28.4771C22.3487 28.616 22.4575 28.7325 22.5912 28.8137C22.7248 28.895 22.8783 28.938 23.0347 28.9381H23.0477C23.2064 28.9357 23.3613 28.8892 23.495 28.8037C23.6287 28.7182 23.736 28.5971 23.8047 28.4541L25.9357 24.0171C26.0337 23.8131 26.0467 23.5786 25.9718 23.3651C25.8968 23.1516 25.7402 22.9766 25.5362 22.8786C25.3323 22.7806 25.0977 22.7676 24.8842 22.8426C24.6707 22.9175 24.4957 23.0742 24.3977 23.2781L23.0067 26.1781L21.4957 23.2601C21.4229 23.1192 21.3122 23.0013 21.176 22.9198C21.0399 22.8383 20.8837 22.7965 20.7251 22.7988C20.5665 22.8012 20.4116 22.8478 20.278 22.9334C20.1444 23.0189 20.0373 23.14 19.9687 23.2831L18.5787 26.1831L17.0647 23.2601Z" fill="#353535"/>
<path d="M28.4192 22.9611C28.3151 22.7601 28.1354 22.6086 27.9196 22.5401C27.7039 22.4715 27.4697 22.4915 27.2687 22.5956C27.0677 22.6997 26.9162 22.8794 26.8477 23.0951C26.7791 23.3109 26.7991 23.5451 26.9032 23.7461L29.2032 28.1831C29.276 28.324 29.3868 28.4419 29.5229 28.5233C29.659 28.6048 29.8152 28.6467 29.9738 28.6443C30.1325 28.642 30.2873 28.5954 30.4209 28.5098C30.5545 28.4243 30.6616 28.3032 30.7302 28.1601L32.1212 25.2601L33.6312 28.1781C33.7032 28.317 33.812 28.4334 33.9457 28.5147C34.0793 28.596 34.2327 28.6391 34.3892 28.6391H34.4022C34.5609 28.6367 34.7158 28.5902 34.8495 28.5047C34.9832 28.4192 35.0905 28.2981 35.1592 28.1551L37.2872 23.7231C37.3357 23.6221 37.3639 23.5125 37.3701 23.4007C37.3762 23.2888 37.3603 23.1768 37.3232 23.0711C37.2861 22.9654 37.2286 22.868 37.1539 22.7845C37.0791 22.7011 36.9887 22.6331 36.8877 22.5846C36.7867 22.5361 36.6771 22.5079 36.5653 22.5017C36.4534 22.4955 36.3414 22.5115 36.2357 22.5486C36.13 22.5856 36.0326 22.6432 35.9491 22.7179C35.8657 22.7927 35.7977 22.8831 35.7492 22.9841L34.3582 25.8841L32.8472 22.9661C32.7744 22.8251 32.6637 22.7073 32.5275 22.6258C32.3914 22.5443 32.2352 22.5024 32.0766 22.5048C31.9179 22.5072 31.7631 22.5538 31.6295 22.6394C31.4959 22.7249 31.3888 22.846 31.3202 22.9891L29.9302 25.8891L28.4192 22.9611Z" fill="#353535"/>
</g>
<defs>
<clipPath id="clip0_2446_490">
<rect width="50" height="45" fill="white" transform="translate(0.25)"/>
</clipPath>
</defs>
</svg>
