<svg width="17" height="22" viewBox="0 0 17 22" fill="none" xmlns="http://www.w3.org/2000/svg">
<path d="M14.9734 9.07529H14.0844V5.96398C14.0844 2.68173 11.4176 0.0148926 8.13529 0.0148926C4.85304 0.0148926 2.1862 2.68173 2.1862 5.96398V9.07529H1.29726C0.613464 9.07529 0.0322266 9.6565 0.0322266 10.3403V11.0925V19.8452V20.5974C0.0322266 21.2812 0.613464 21.8624 1.29726 21.8624H8.13529H14.9734C15.6572 21.8624 16.2384 21.2812 16.2384 20.5974V19.8452V11.0925V10.3403C16.2384 9.6565 15.6572 9.07529 14.9734 9.07529ZM9.46876 18.1015H6.76769L7.24635 15.8108C6.80188 15.5372 6.49417 15.0244 6.49417 14.4431C6.49417 13.5542 7.21216 12.8362 8.1011 12.8362C8.99005 12.8362 9.70806 13.5542 9.70806 14.4431C9.70806 15.0244 9.40036 15.503 8.95586 15.8108L9.46876 18.1015ZM8.13529 9.07529H4.30599V5.96398C4.30599 3.84419 6.0155 2.13468 8.13529 2.13468C10.2551 2.13468 11.9646 3.84419 11.9646 5.96398V9.07529H8.13529Z" fill="white"/>
</svg>
