<svg width="50" height="45" viewBox="0 0 50 45" fill="none" xmlns="http://www.w3.org/2000/svg">
<g clip-path="url(#clip0_2446_508)">
<path d="M21.6 43.9992C21.6 43.8671 21.5738 43.7362 21.5229 43.6142C21.4721 43.4923 21.3975 43.3816 21.3036 43.2886C21.2097 43.1956 21.0982 43.1221 20.9758 43.0725C20.8533 43.0228 20.7222 42.9979 20.59 42.9992H6.5C5.32037 43.0038 4.18714 42.54 3.34908 41.7099C2.51102 40.8797 2.03661 39.7509 2.03 38.5712V9.71424H8.151V13.4842C8.151 13.7521 8.25741 14.009 8.44682 14.1984C8.63623 14.3878 8.89313 14.4942 9.161 14.4942C9.42887 14.4942 9.68577 14.3878 9.87518 14.1984C10.0646 14.009 10.171 13.7521 10.171 13.4842V9.71424H22.342V13.4842C22.342 13.7521 22.4484 14.009 22.6378 14.1984C22.8272 14.3878 23.0841 14.4942 23.352 14.4942C23.6199 14.4942 23.8768 14.3878 24.0662 14.1984C24.2556 14.009 24.362 13.7521 24.362 13.4842V9.71424H30.483V11.6852C30.483 11.9531 30.5894 12.21 30.7788 12.3994C30.9682 12.5888 31.2251 12.6952 31.493 12.6952C31.7609 12.6952 32.0178 12.5888 32.2072 12.3994C32.3966 12.21 32.503 11.9531 32.503 11.6852V8.71324C32.503 8.58108 32.4768 8.45022 32.4259 8.32824C32.3751 8.20625 32.3005 8.09557 32.2066 8.00258C32.1127 7.90959 32.0012 7.83614 31.8788 7.78647C31.7563 7.73681 31.6252 7.71192 31.493 7.71324H24.352C24.2487 5.63461 23.3502 3.67524 21.8425 2.2406C20.3348 0.805963 18.3332 0.00585938 16.252 0.00585938C14.1708 0.00585938 12.1692 0.805963 10.6615 2.2406C9.1538 3.67524 8.25532 5.63461 8.152 7.71324H1.01C0.877839 7.71192 0.746727 7.73681 0.624245 7.78647C0.501763 7.83614 0.39034 7.90959 0.29642 8.00258C0.202499 8.09557 0.127945 8.20625 0.0770656 8.32824C0.0261868 8.45022 -6.60729e-06 8.58108 1.25018e-09 8.71324V38.5712C0.00873212 40.2839 0.696972 41.923 1.91351 43.1284C3.13005 44.3339 4.77537 45.0072 6.488 45.0002H20.577C20.71 45.002 20.842 44.9774 20.9654 44.928C21.0889 44.8785 21.2014 44.8052 21.2964 44.7122C21.3915 44.6192 21.4672 44.5084 21.5193 44.386C21.5714 44.2637 21.5988 44.1322 21.6 43.9992ZM16.254 1.99924C17.8045 1.99663 19.2974 2.58638 20.4276 3.64792C21.5577 4.70947 22.2397 6.16261 22.334 7.71024H10.171C10.2658 6.16279 10.9481 4.71 12.0784 3.64885C13.2087 2.5877 14.7016 1.99834 16.252 2.00124L16.254 1.99924Z" fill="#353535"/>
<path d="M30.1774 20.1451V21.287H24.6174C24.4853 21.2857 24.3542 21.3106 24.2317 21.3603C24.1092 21.4099 23.9978 21.4834 23.9039 21.5764C23.8099 21.6694 23.7354 21.7801 23.6845 21.902C23.6336 22.024 23.6074 22.1549 23.6074 22.287V39.845C23.614 41.2159 24.1648 42.5279 25.1386 43.4928C26.1125 44.4576 27.4296 44.9962 28.8004 44.99H44.8074C46.1782 44.9959 47.4952 44.4572 48.4689 43.4925C49.4427 42.5277 49.9935 41.2158 50.0004 39.845V22.288C50.0004 22.1559 49.9742 22.025 49.9234 21.903C49.8725 21.781 49.7979 21.6704 49.704 21.5774C49.6101 21.4844 49.4987 21.4109 49.3762 21.3613C49.2537 21.3116 49.1226 21.2867 48.9904 21.288H43.4304V20.1451C43.4304 18.3877 42.7323 16.7024 41.4897 15.4597C40.2471 14.2171 38.5618 13.519 36.8044 13.519C35.0471 13.519 33.3618 14.2171 32.1191 15.4597C30.8765 16.7024 30.1774 18.3877 30.1774 20.1451ZM42.4194 26.776C42.5516 26.7774 42.6827 26.7525 42.8052 26.7028C42.9277 26.6531 43.0391 26.5797 43.133 26.4867C43.2269 26.3937 43.3015 26.283 43.3524 26.1611C43.4032 26.0391 43.4294 25.9082 43.4294 25.776V23.289H47.9794V39.845C47.9747 40.6824 47.6379 41.4838 47.0431 42.0732C46.4482 42.6626 45.6438 42.992 44.8064 42.989H28.8004C27.963 42.992 27.1587 42.6626 26.5638 42.0732C25.9689 41.4838 25.6322 40.6824 25.6274 39.845V23.289H30.1774V25.776C30.1774 26.0439 30.2838 26.3008 30.4733 26.4902C30.6627 26.6796 30.9196 26.786 31.1874 26.786C31.4553 26.786 31.7122 26.6796 31.9016 26.4902C32.091 26.3008 32.1974 26.0439 32.1974 25.776V23.289H41.4074V25.776C41.4074 25.9084 41.4337 26.0394 41.4847 26.1615C41.5357 26.2836 41.6104 26.3944 41.7045 26.4874C41.7987 26.5804 41.9104 26.6539 42.0331 26.7034C42.1558 26.7529 42.2871 26.7776 42.4194 26.776ZM41.4094 20.1451V21.287H32.1974V20.1451C32.1974 18.9235 32.6827 17.7519 33.5465 16.8881C34.4103 16.0243 35.5818 15.539 36.8034 15.539C38.025 15.539 39.1966 16.0243 40.0604 16.8881C40.9242 17.7519 41.4094 18.9235 41.4094 20.1451Z" fill="#353535"/>
</g>
<defs>
<clipPath id="clip0_2446_508">
<rect width="50" height="45" fill="white"/>
</clipPath>
</defs>
</svg>
