<svg width="90" height="89" viewBox="0 0 90 89" fill="none" xmlns="http://www.w3.org/2000/svg">
<rect x="0.5" width="89" height="89" rx="44.5" fill="#FAFAFA"/>
<g clip-path="url(#clip0_2446_506)">
<path d="M41.6 65.9992C41.6 65.8671 41.5738 65.7362 41.5229 65.6142C41.4721 65.4923 41.3975 65.3816 41.3036 65.2886C41.2097 65.1956 41.0982 65.1221 40.9758 65.0725C40.8533 65.0228 40.7222 64.9979 40.59 64.9992H26.5C25.3204 65.0038 24.1871 64.54 23.3491 63.7099C22.511 62.8797 22.0366 61.7509 22.03 60.5712V31.7142H28.151V35.4842C28.151 35.7521 28.2574 36.009 28.4468 36.1984C28.6362 36.3878 28.8931 36.4942 29.161 36.4942C29.4289 36.4942 29.6858 36.3878 29.8752 36.1984C30.0646 36.009 30.171 35.7521 30.171 35.4842V31.7142H42.342V35.4842C42.342 35.7521 42.4484 36.009 42.6378 36.1984C42.8272 36.3878 43.0841 36.4942 43.352 36.4942C43.6199 36.4942 43.8768 36.3878 44.0662 36.1984C44.2556 36.009 44.362 35.7521 44.362 35.4842V31.7142H50.483V33.6852C50.483 33.9531 50.5894 34.21 50.7788 34.3994C50.9682 34.5888 51.2251 34.6952 51.493 34.6952C51.7609 34.6952 52.0178 34.5888 52.2072 34.3994C52.3966 34.21 52.503 33.9531 52.503 33.6852V30.7132C52.503 30.5811 52.4768 30.4502 52.4259 30.3282C52.3751 30.2063 52.3005 30.0956 52.2066 30.0026C52.1127 29.9096 52.0012 29.8361 51.8788 29.7865C51.7563 29.7368 51.6252 29.7119 51.493 29.7132H44.352C44.2487 27.6346 43.3502 25.6752 41.8425 24.2406C40.3348 22.806 38.3332 22.0059 36.252 22.0059C34.1708 22.0059 32.1692 22.806 30.6615 24.2406C29.1538 25.6752 28.2553 27.6346 28.152 29.7132H21.01C20.8778 29.7119 20.7467 29.7368 20.6242 29.7865C20.5018 29.8361 20.3903 29.9096 20.2964 30.0026C20.2025 30.0956 20.1279 30.2063 20.0771 30.3282C20.0262 30.4502 20 30.5811 20 30.7132V60.5712C20.0087 62.2839 20.697 63.923 21.9135 65.1284C23.13 66.3339 24.7754 67.0072 26.488 67.0002H40.577C40.71 67.002 40.842 66.9774 40.9654 66.928C41.0889 66.8785 41.2014 66.8052 41.2964 66.7122C41.3915 66.6192 41.4672 66.5084 41.5193 66.386C41.5714 66.2637 41.5988 66.1322 41.6 65.9992ZM36.254 23.9992C37.8045 23.9966 39.2974 24.5864 40.4276 25.6479C41.5577 26.7095 42.2397 28.1626 42.334 29.7102H30.171C30.2658 28.1628 30.9481 26.71 32.0784 25.6489C33.2087 24.5877 34.7016 23.9983 36.252 24.0012L36.254 23.9992Z" fill="#353535"/>
<path d="M50.1774 42.1451V43.287H44.6174C44.4853 43.2857 44.3542 43.3106 44.2317 43.3603C44.1092 43.4099 43.9978 43.4834 43.9039 43.5764C43.8099 43.6694 43.7354 43.7801 43.6845 43.902C43.6336 44.024 43.6074 44.1549 43.6074 44.287V61.845C43.614 63.2159 44.1648 64.5279 45.1386 65.4928C46.1125 66.4576 47.4296 66.9962 48.8004 66.99H64.8074C66.1782 66.9959 67.4952 66.4572 68.4689 65.4925C69.4427 64.5277 69.9935 63.2158 70.0004 61.845V44.288C70.0004 44.1559 69.9742 44.025 69.9234 43.903C69.8725 43.781 69.7979 43.6704 69.704 43.5774C69.6101 43.4844 69.4987 43.4109 69.3762 43.3613C69.2537 43.3116 69.1226 43.2867 68.9904 43.288H63.4304V42.1451C63.4304 40.3877 62.7323 38.7024 61.4897 37.4597C60.2471 36.2171 58.5618 35.519 56.8044 35.519C55.0471 35.519 53.3618 36.2171 52.1191 37.4597C50.8765 38.7024 50.1774 40.3877 50.1774 42.1451ZM62.4194 48.776C62.5516 48.7774 62.6827 48.7525 62.8052 48.7028C62.9277 48.6531 63.0391 48.5797 63.133 48.4867C63.2269 48.3937 63.3015 48.283 63.3524 48.1611C63.4032 48.0391 63.4294 47.9082 63.4294 47.776V45.289H67.9794V61.845C67.9747 62.6824 67.6379 63.4838 67.0431 64.0732C66.4482 64.6626 65.6438 64.992 64.8064 64.989H48.8004C47.963 64.992 47.1587 64.6626 46.5638 64.0732C45.9689 63.4838 45.6322 62.6824 45.6274 61.845V45.289H50.1774V47.776C50.1774 48.0439 50.2838 48.3008 50.4733 48.4902C50.6627 48.6796 50.9196 48.786 51.1874 48.786C51.4553 48.786 51.7122 48.6796 51.9016 48.4902C52.091 48.3008 52.1974 48.0439 52.1974 47.776V45.289H61.4074V47.776C61.4074 47.9084 61.4337 48.0394 61.4847 48.1615C61.5357 48.2836 61.6104 48.3944 61.7045 48.4874C61.7987 48.5804 61.9104 48.6539 62.0331 48.7034C62.1558 48.7529 62.2871 48.7776 62.4194 48.776ZM61.4094 42.1451V43.287H52.1974V42.1451C52.1974 40.9235 52.6827 39.7519 53.5465 38.8881C54.4103 38.0243 55.5818 37.539 56.8034 37.539C58.025 37.539 59.1966 38.0243 60.0604 38.8881C60.9242 39.7519 61.4094 40.9235 61.4094 42.1451Z" fill="#353535"/>
</g>
<rect x="0.5" width="23" height="23" rx="11.5" fill="#34B78F"/>
<path d="M8.4656 17V15.9773L12.3065 11.7727C12.7573 11.2803 13.1285 10.8523 13.4201 10.4886C13.7118 10.1212 13.9277 9.77652 14.0679 9.45455C14.2118 9.12879 14.2838 8.78788 14.2838 8.43182C14.2838 8.02273 14.1853 7.66856 13.9883 7.36932C13.7951 7.07008 13.53 6.83901 13.1929 6.67614C12.8558 6.51326 12.477 6.43182 12.0565 6.43182C11.6095 6.43182 11.2194 6.52462 10.8861 6.71023C10.5565 6.89205 10.3008 7.14773 10.119 7.47727C9.94098 7.80682 9.85196 8.19318 9.85196 8.63636H8.51105C8.51105 7.95455 8.66825 7.35606 8.98265 6.84091C9.29704 6.32576 9.72507 5.92424 10.2667 5.63636C10.8122 5.34848 11.4239 5.20455 12.102 5.20455C12.7838 5.20455 13.3879 5.34848 13.9145 5.63636C14.441 5.92424 14.8539 6.3125 15.1531 6.80114C15.4523 7.28977 15.602 7.83333 15.602 8.43182C15.602 8.85985 15.5243 9.27841 15.369 9.6875C15.2175 10.0928 14.9523 10.5455 14.5736 11.0455C14.1986 11.5417 13.6777 12.1477 13.0111 12.8636L10.3974 15.6591V15.75H15.8065V17H8.4656Z" fill="white"/>
<defs>
<clipPath id="clip0_2446_506">
<rect width="50" height="45" fill="white" transform="translate(20 22)"/>
</clipPath>
</defs>
</svg>
